# ProBuilder 5.1.1
# https://unity3d.com/unity/features/worldbuilding/probuilder
# 1/08/2024 1:43:54 PM

mtllib ./Incubator.mtl
o Incubator

g Cube (2)
v 1.499998 -1.539269 3.534965
v -1.500001 -1.539269 3.534965
v 1.499998 0.09623158 3.534965
v -1.500001 0.09623158 3.534965
v -1.5 -1.539269 -3.534965
v -1.5 0.09623158 -3.534965
v 1.5 -1.539269 -3.534962
v 1.5 0.09623158 -3.534962

vt 1.499998 -1.539269
vt -1.500001 -1.539269
vt 1.499998 0.09623158
vt -1.500001 0.09623158
vt 3.534965 -1.539269
vt -3.534964 -1.539269
vt 3.534965 0.09623158
vt -3.534964 0.09623158
vt 1.500003 -1.539269
vt -1.499997 -1.539269
vt 1.500003 0.09623158
vt -1.499997 0.09623158
vt -1.499998 3.534965
vt 1.500001 3.534965
vt -1.5 -3.534962
vt 1.5 -3.534965
vt 1.499998 3.534965
vt -1.500001 3.534965

vn 0 0 1
vn -1 0 -1.348916E-07
vn 7.947286E-07 0 -1
vn 1 0 2.697834E-07
vn 0 1 0
vn 0 -1 0

usemtl Lit
f 3/3/1 4/4/1 2/2/1 1/1/1
f 4/7/2 6/8/2 5/6/2 2/5/2
f 6/11/3 8/12/3 7/10/3 5/9/3
f 8/7/4 3/8/4 1/6/4 7/5/4
f 8/15/5 6/16/5 4/14/5 3/13/5
f 1/17/6 2/18/6 5/15/6 7/16/6

