# ProBuilder 5.1.1
# https://unity3d.com/unity/features/worldbuilding/probuilder
# 1/08/2024 1:43:43 PM

mtllib ./SellStation.mtl
o SellStation

g Cube
v 1.499999 -1.539269 1.5
v -1.500001 -1.539269 1.5
v 1.499999 3.510439 1.5
v -1.500001 3.510439 1.5
v -1.5 -1.539269 -1.5
v -1.5 3.510439 -1.5
v 1.5 -1.539269 -1.499999
v 1.5 3.510439 -1.499999

vt 1.499999 -1.539269
vt -1.500001 -1.539269
vt 1.499999 3.510439
vt -1.500001 3.510439
vt 1.500001 -1.539269
vt -1.5 -1.539269
vt 1.500001 3.510439
vt -1.5 3.510439
vt -1.499999 1.5
vt 1.500001 1.5
vt -1.5 -1.499999
vt 1.5 -1.5
vt 1.5 -1.499999
vt -1.5 -1.5
vt 1.499999 1.5
vt -1.500001 1.5

vn 3.973643E-08 0 1
vn -1 0 -1.986821E-07
vn 1.986821E-07 0 -1
vn 1 0 3.973644E-07
vn 0 1 0
vn 0 -1 0

usemtl Lit
f 3/3/1 4/4/1 2/2/1 1/1/1
f 4/7/2 6/8/2 5/6/2 2/5/2
f 6/7/3 8/8/3 7/6/3 5/5/3
f 8/3/4 3/8/4 1/6/4 7/1/4
f 8/11/5 6/12/5 4/10/5 3/9/5
f 1/15/6 2/16/6 5/14/6 7/13/6

